<?xml version="1.0" encoding="utf-8" standalone="no"?>
<!DOCTYPE svg PUBLIC "-//W3C//DTD SVG 1.1//EN"
  "http://www.w3.org/Graphics/SVG/1.1/DTD/svg11.dtd">
<!-- Created with matplotlib (https://matplotlib.org/) -->
<svg height="288pt" version="1.1" viewBox="0 0 1008 288" width="1008pt" xmlns="http://www.w3.org/2000/svg" xmlns:xlink="http://www.w3.org/1999/xlink">
 <metadata>
  <rdf:RDF xmlns:cc="http://creativecommons.org/ns#" xmlns:dc="http://purl.org/dc/elements/1.1/" xmlns:rdf="http://www.w3.org/1999/02/22-rdf-syntax-ns#">
   <cc:Work>
    <dc:type rdf:resource="http://purl.org/dc/dcmitype/StillImage"/>
    <dc:date>2024-10-20T19:20:38.462399</dc:date>
    <dc:format>image/svg+xml</dc:format>
    <dc:creator>
     <cc:Agent>
      <dc:title>Matplotlib v3.3.2, https://matplotlib.org/</dc:title>
     </cc:Agent>
    </dc:creator>
   </cc:Work>
  </rdf:RDF>
 </metadata>
 <defs>
  <style type="text/css">*{stroke-linecap:butt;stroke-linejoin:round;}</style>
 </defs>
 <g id="figure_1">
  <g id="patch_1">
   <path d="M 0 288 
L 1008 288 
L 1008 0 
L 0 0 
z
" style="fill:#ffffff;"/>
  </g>
  <g id="axes_1">
   <g id="patch_2">
    <path d="M 126 252 
L 481.090909 252 
L 481.090909 34.56 
L 126 34.56 
z
" style="fill:#ffffff;"/>
   </g>
   <g id="matplotlib.axis_1">
    <g id="xtick_1">
     <g id="line2d_1">
      <defs>
       <path d="M 0 0 
L 0 3.5 
" id="ma92e5a272e" style="stroke:#262626;stroke-width:0.8;"/>
      </defs>
      <g>
       <use style="fill:#262626;stroke:#262626;stroke-width:0.8;" x="458.897727" xlink:href="#ma92e5a272e" y="252"/>
      </g>
     </g>
     <g id="text_1">
      <!-- 3000 -->
      <g style="fill:#262626;" transform="translate(446.172727 266.598437)scale(0.1 -0.1)">
       <defs>
        <path d="M 40.578125 39.3125 
Q 47.65625 37.796875 51.625 33 
Q 55.609375 28.21875 55.609375 21.1875 
Q 55.609375 10.40625 48.1875 4.484375 
Q 40.765625 -1.421875 27.09375 -1.421875 
Q 22.515625 -1.421875 17.65625 -0.515625 
Q 12.796875 0.390625 7.625 2.203125 
L 7.625 11.71875 
Q 11.71875 9.328125 16.59375 8.109375 
Q 21.484375 6.890625 26.8125 6.890625 
Q 36.078125 6.890625 40.9375 10.546875 
Q 45.796875 14.203125 45.796875 21.1875 
Q 45.796875 27.640625 41.28125 31.265625 
Q 36.765625 34.90625 28.71875 34.90625 
L 20.21875 34.90625 
L 20.21875 43.015625 
L 29.109375 43.015625 
Q 36.375 43.015625 40.234375 45.921875 
Q 44.09375 48.828125 44.09375 54.296875 
Q 44.09375 59.90625 40.109375 62.90625 
Q 36.140625 65.921875 28.71875 65.921875 
Q 24.65625 65.921875 20.015625 65.03125 
Q 15.375 64.15625 9.8125 62.3125 
L 9.8125 71.09375 
Q 15.4375 72.65625 20.34375 73.4375 
Q 25.25 74.21875 29.59375 74.21875 
Q 40.828125 74.21875 47.359375 69.109375 
Q 53.90625 64.015625 53.90625 55.328125 
Q 53.90625 49.265625 50.4375 45.09375 
Q 46.96875 40.921875 40.578125 39.3125 
z
" id="DejaVuSans-51"/>
        <path d="M 31.78125 66.40625 
Q 24.171875 66.40625 20.328125 58.90625 
Q 16.5 51.421875 16.5 36.375 
Q 16.5 21.390625 20.328125 13.890625 
Q 24.171875 6.390625 31.78125 6.390625 
Q 39.453125 6.390625 43.28125 13.890625 
Q 47.125 21.390625 47.125 36.375 
Q 47.125 51.421875 43.28125 58.90625 
Q 39.453125 66.40625 31.78125 66.40625 
z
M 31.78125 74.21875 
Q 44.046875 74.21875 50.515625 64.515625 
Q 56.984375 54.828125 56.984375 36.375 
Q 56.984375 17.96875 50.515625 8.265625 
Q 44.046875 -1.421875 31.78125 -1.421875 
Q 19.53125 -1.421875 13.0625 8.265625 
Q 6.59375 17.96875 6.59375 36.375 
Q 6.59375 54.828125 13.0625 64.515625 
Q 19.53125 74.21875 31.78125 74.21875 
z
" id="DejaVuSans-48"/>
       </defs>
       <use xlink:href="#DejaVuSans-51"/>
       <use x="63.623047" xlink:href="#DejaVuSans-48"/>
       <use x="127.246094" xlink:href="#DejaVuSans-48"/>
       <use x="190.869141" xlink:href="#DejaVuSans-48"/>
      </g>
     </g>
    </g>
    <g id="xtick_2">
     <g id="line2d_2">
      <g>
       <use style="fill:#262626;stroke:#262626;stroke-width:0.8;" x="414.511364" xlink:href="#ma92e5a272e" y="252"/>
      </g>
     </g>
     <g id="text_2">
      <!-- 3200 -->
      <g style="fill:#262626;" transform="translate(401.786364 266.598437)scale(0.1 -0.1)">
       <defs>
        <path d="M 19.1875 8.296875 
L 53.609375 8.296875 
L 53.609375 0 
L 7.328125 0 
L 7.328125 8.296875 
Q 12.9375 14.109375 22.625 23.890625 
Q 32.328125 33.6875 34.8125 36.53125 
Q 39.546875 41.84375 41.421875 45.53125 
Q 43.3125 49.21875 43.3125 52.78125 
Q 43.3125 58.59375 39.234375 62.25 
Q 35.15625 65.921875 28.609375 65.921875 
Q 23.96875 65.921875 18.8125 64.3125 
Q 13.671875 62.703125 7.8125 59.421875 
L 7.8125 69.390625 
Q 13.765625 71.78125 18.9375 73 
Q 24.125 74.21875 28.421875 74.21875 
Q 39.75 74.21875 46.484375 68.546875 
Q 53.21875 62.890625 53.21875 53.421875 
Q 53.21875 48.921875 51.53125 44.890625 
Q 49.859375 40.875 45.40625 35.40625 
Q 44.1875 33.984375 37.640625 27.21875 
Q 31.109375 20.453125 19.1875 8.296875 
z
" id="DejaVuSans-50"/>
       </defs>
       <use xlink:href="#DejaVuSans-51"/>
       <use x="63.623047" xlink:href="#DejaVuSans-50"/>
       <use x="127.246094" xlink:href="#DejaVuSans-48"/>
       <use x="190.869141" xlink:href="#DejaVuSans-48"/>
      </g>
     </g>
    </g>
    <g id="xtick_3">
     <g id="line2d_3">
      <g>
       <use style="fill:#262626;stroke:#262626;stroke-width:0.8;" x="370.125" xlink:href="#ma92e5a272e" y="252"/>
      </g>
     </g>
     <g id="text_3">
      <!-- 3400 -->
      <g style="fill:#262626;" transform="translate(357.4 266.598437)scale(0.1 -0.1)">
       <defs>
        <path d="M 37.796875 64.3125 
L 12.890625 25.390625 
L 37.796875 25.390625 
z
M 35.203125 72.90625 
L 47.609375 72.90625 
L 47.609375 25.390625 
L 58.015625 25.390625 
L 58.015625 17.1875 
L 47.609375 17.1875 
L 47.609375 0 
L 37.796875 0 
L 37.796875 17.1875 
L 4.890625 17.1875 
L 4.890625 26.703125 
z
" id="DejaVuSans-52"/>
       </defs>
       <use xlink:href="#DejaVuSans-51"/>
       <use x="63.623047" xlink:href="#DejaVuSans-52"/>
       <use x="127.246094" xlink:href="#DejaVuSans-48"/>
       <use x="190.869141" xlink:href="#DejaVuSans-48"/>
      </g>
     </g>
    </g>
    <g id="xtick_4">
     <g id="line2d_4">
      <g>
       <use style="fill:#262626;stroke:#262626;stroke-width:0.8;" x="325.738636" xlink:href="#ma92e5a272e" y="252"/>
      </g>
     </g>
     <g id="text_4">
      <!-- 3600 -->
      <g style="fill:#262626;" transform="translate(313.013636 266.598437)scale(0.1 -0.1)">
       <defs>
        <path d="M 33.015625 40.375 
Q 26.375 40.375 22.484375 35.828125 
Q 18.609375 31.296875 18.609375 23.390625 
Q 18.609375 15.53125 22.484375 10.953125 
Q 26.375 6.390625 33.015625 6.390625 
Q 39.65625 6.390625 43.53125 10.953125 
Q 47.40625 15.53125 47.40625 23.390625 
Q 47.40625 31.296875 43.53125 35.828125 
Q 39.65625 40.375 33.015625 40.375 
z
M 52.59375 71.296875 
L 52.59375 62.3125 
Q 48.875 64.0625 45.09375 64.984375 
Q 41.3125 65.921875 37.59375 65.921875 
Q 27.828125 65.921875 22.671875 59.328125 
Q 17.53125 52.734375 16.796875 39.40625 
Q 19.671875 43.65625 24.015625 45.921875 
Q 28.375 48.1875 33.59375 48.1875 
Q 44.578125 48.1875 50.953125 41.515625 
Q 57.328125 34.859375 57.328125 23.390625 
Q 57.328125 12.15625 50.6875 5.359375 
Q 44.046875 -1.421875 33.015625 -1.421875 
Q 20.359375 -1.421875 13.671875 8.265625 
Q 6.984375 17.96875 6.984375 36.375 
Q 6.984375 53.65625 15.1875 63.9375 
Q 23.390625 74.21875 37.203125 74.21875 
Q 40.921875 74.21875 44.703125 73.484375 
Q 48.484375 72.75 52.59375 71.296875 
z
" id="DejaVuSans-54"/>
       </defs>
       <use xlink:href="#DejaVuSans-51"/>
       <use x="63.623047" xlink:href="#DejaVuSans-54"/>
       <use x="127.246094" xlink:href="#DejaVuSans-48"/>
       <use x="190.869141" xlink:href="#DejaVuSans-48"/>
      </g>
     </g>
    </g>
    <g id="xtick_5">
     <g id="line2d_5">
      <g>
       <use style="fill:#262626;stroke:#262626;stroke-width:0.8;" x="281.352273" xlink:href="#ma92e5a272e" y="252"/>
      </g>
     </g>
     <g id="text_5">
      <!-- 3800 -->
      <g style="fill:#262626;" transform="translate(268.627273 266.598437)scale(0.1 -0.1)">
       <defs>
        <path d="M 31.78125 34.625 
Q 24.75 34.625 20.71875 30.859375 
Q 16.703125 27.09375 16.703125 20.515625 
Q 16.703125 13.921875 20.71875 10.15625 
Q 24.75 6.390625 31.78125 6.390625 
Q 38.8125 6.390625 42.859375 10.171875 
Q 46.921875 13.96875 46.921875 20.515625 
Q 46.921875 27.09375 42.890625 30.859375 
Q 38.875 34.625 31.78125 34.625 
z
M 21.921875 38.8125 
Q 15.578125 40.375 12.03125 44.71875 
Q 8.5 49.078125 8.5 55.328125 
Q 8.5 64.0625 14.71875 69.140625 
Q 20.953125 74.21875 31.78125 74.21875 
Q 42.671875 74.21875 48.875 69.140625 
Q 55.078125 64.0625 55.078125 55.328125 
Q 55.078125 49.078125 51.53125 44.71875 
Q 48 40.375 41.703125 38.8125 
Q 48.828125 37.15625 52.796875 32.3125 
Q 56.78125 27.484375 56.78125 20.515625 
Q 56.78125 9.90625 50.3125 4.234375 
Q 43.84375 -1.421875 31.78125 -1.421875 
Q 19.734375 -1.421875 13.25 4.234375 
Q 6.78125 9.90625 6.78125 20.515625 
Q 6.78125 27.484375 10.78125 32.3125 
Q 14.796875 37.15625 21.921875 38.8125 
z
M 18.3125 54.390625 
Q 18.3125 48.734375 21.84375 45.5625 
Q 25.390625 42.390625 31.78125 42.390625 
Q 38.140625 42.390625 41.71875 45.5625 
Q 45.3125 48.734375 45.3125 54.390625 
Q 45.3125 60.0625 41.71875 63.234375 
Q 38.140625 66.40625 31.78125 66.40625 
Q 25.390625 66.40625 21.84375 63.234375 
Q 18.3125 60.0625 18.3125 54.390625 
z
" id="DejaVuSans-56"/>
       </defs>
       <use xlink:href="#DejaVuSans-51"/>
       <use x="63.623047" xlink:href="#DejaVuSans-56"/>
       <use x="127.246094" xlink:href="#DejaVuSans-48"/>
       <use x="190.869141" xlink:href="#DejaVuSans-48"/>
      </g>
     </g>
    </g>
    <g id="xtick_6">
     <g id="line2d_6">
      <g>
       <use style="fill:#262626;stroke:#262626;stroke-width:0.8;" x="236.965909" xlink:href="#ma92e5a272e" y="252"/>
      </g>
     </g>
     <g id="text_6">
      <!-- 4000 -->
      <g style="fill:#262626;" transform="translate(224.240909 266.598437)scale(0.1 -0.1)">
       <use xlink:href="#DejaVuSans-52"/>
       <use x="63.623047" xlink:href="#DejaVuSans-48"/>
       <use x="127.246094" xlink:href="#DejaVuSans-48"/>
       <use x="190.869141" xlink:href="#DejaVuSans-48"/>
      </g>
     </g>
    </g>
    <g id="xtick_7">
     <g id="line2d_7">
      <g>
       <use style="fill:#262626;stroke:#262626;stroke-width:0.8;" x="192.579545" xlink:href="#ma92e5a272e" y="252"/>
      </g>
     </g>
     <g id="text_7">
      <!-- 4200 -->
      <g style="fill:#262626;" transform="translate(179.854545 266.598437)scale(0.1 -0.1)">
       <use xlink:href="#DejaVuSans-52"/>
       <use x="63.623047" xlink:href="#DejaVuSans-50"/>
       <use x="127.246094" xlink:href="#DejaVuSans-48"/>
       <use x="190.869141" xlink:href="#DejaVuSans-48"/>
      </g>
     </g>
    </g>
    <g id="xtick_8">
     <g id="line2d_8">
      <g>
       <use style="fill:#262626;stroke:#262626;stroke-width:0.8;" x="148.193182" xlink:href="#ma92e5a272e" y="252"/>
      </g>
     </g>
     <g id="text_8">
      <!-- 4400 -->
      <g style="fill:#262626;" transform="translate(135.468182 266.598437)scale(0.1 -0.1)">
       <use xlink:href="#DejaVuSans-52"/>
       <use x="63.623047" xlink:href="#DejaVuSans-52"/>
       <use x="127.246094" xlink:href="#DejaVuSans-48"/>
       <use x="190.869141" xlink:href="#DejaVuSans-48"/>
      </g>
     </g>
    </g>
    <g id="xtick_9">
     <g id="line2d_9">
      <defs>
       <path d="M 0 0 
L 0 2 
" id="mca1b5a1c74" style="stroke:#262626;stroke-width:0.6;"/>
      </defs>
      <g>
       <use style="fill:#262626;stroke:#262626;stroke-width:0.6;" x="481.090909" xlink:href="#mca1b5a1c74" y="252"/>
      </g>
     </g>
    </g>
    <g id="xtick_10">
     <g id="line2d_10">
      <g>
       <use style="fill:#262626;stroke:#262626;stroke-width:0.6;" x="436.704545" xlink:href="#mca1b5a1c74" y="252"/>
      </g>
     </g>
    </g>
    <g id="xtick_11">
     <g id="line2d_11">
      <g>
       <use style="fill:#262626;stroke:#262626;stroke-width:0.6;" x="392.318182" xlink:href="#mca1b5a1c74" y="252"/>
      </g>
     </g>
    </g>
    <g id="xtick_12">
     <g id="line2d_12">
      <g>
       <use style="fill:#262626;stroke:#262626;stroke-width:0.6;" x="347.931818" xlink:href="#mca1b5a1c74" y="252"/>
      </g>
     </g>
    </g>
    <g id="xtick_13">
     <g id="line2d_13">
      <g>
       <use style="fill:#262626;stroke:#262626;stroke-width:0.6;" x="303.545455" xlink:href="#mca1b5a1c74" y="252"/>
      </g>
     </g>
    </g>
    <g id="xtick_14">
     <g id="line2d_14">
      <g>
       <use style="fill:#262626;stroke:#262626;stroke-width:0.6;" x="259.159091" xlink:href="#mca1b5a1c74" y="252"/>
      </g>
     </g>
    </g>
    <g id="xtick_15">
     <g id="line2d_15">
      <g>
       <use style="fill:#262626;stroke:#262626;stroke-width:0.6;" x="214.772727" xlink:href="#mca1b5a1c74" y="252"/>
      </g>
     </g>
    </g>
    <g id="xtick_16">
     <g id="line2d_16">
      <g>
       <use style="fill:#262626;stroke:#262626;stroke-width:0.6;" x="170.386364" xlink:href="#mca1b5a1c74" y="252"/>
      </g>
     </g>
    </g>
    <g id="xtick_17">
     <g id="line2d_17">
      <g>
       <use style="fill:#262626;stroke:#262626;stroke-width:0.6;" x="126" xlink:href="#mca1b5a1c74" y="252"/>
      </g>
     </g>
    </g>
    <g id="text_9">
     <!--              Age (Ma)  -->
     <g style="fill:#262626;" transform="translate(258.758736 280.276563)scale(0.1 -0.1)">
      <defs>
       <path id="DejaVuSans-32"/>
       <path d="M 34.1875 63.1875 
L 20.796875 26.90625 
L 47.609375 26.90625 
z
M 28.609375 72.90625 
L 39.796875 72.90625 
L 67.578125 0 
L 57.328125 0 
L 50.6875 18.703125 
L 17.828125 18.703125 
L 11.1875 0 
L 0.78125 0 
z
" id="DejaVuSans-65"/>
       <path d="M 45.40625 27.984375 
Q 45.40625 37.75 41.375 43.109375 
Q 37.359375 48.484375 30.078125 48.484375 
Q 22.859375 48.484375 18.828125 43.109375 
Q 14.796875 37.75 14.796875 27.984375 
Q 14.796875 18.265625 18.828125 12.890625 
Q 22.859375 7.515625 30.078125 7.515625 
Q 37.359375 7.515625 41.375 12.890625 
Q 45.40625 18.265625 45.40625 27.984375 
z
M 54.390625 6.78125 
Q 54.390625 -7.171875 48.1875 -13.984375 
Q 42 -20.796875 29.203125 -20.796875 
Q 24.46875 -20.796875 20.265625 -20.09375 
Q 16.0625 -19.390625 12.109375 -17.921875 
L 12.109375 -9.1875 
Q 16.0625 -11.328125 19.921875 -12.34375 
Q 23.78125 -13.375 27.78125 -13.375 
Q 36.625 -13.375 41.015625 -8.765625 
Q 45.40625 -4.15625 45.40625 5.171875 
L 45.40625 9.625 
Q 42.625 4.78125 38.28125 2.390625 
Q 33.9375 0 27.875 0 
Q 17.828125 0 11.671875 7.65625 
Q 5.515625 15.328125 5.515625 27.984375 
Q 5.515625 40.671875 11.671875 48.328125 
Q 17.828125 56 27.875 56 
Q 33.9375 56 38.28125 53.609375 
Q 42.625 51.21875 45.40625 46.390625 
L 45.40625 54.6875 
L 54.390625 54.6875 
z
" id="DejaVuSans-103"/>
       <path d="M 56.203125 29.59375 
L 56.203125 25.203125 
L 14.890625 25.203125 
Q 15.484375 15.921875 20.484375 11.0625 
Q 25.484375 6.203125 34.421875 6.203125 
Q 39.59375 6.203125 44.453125 7.46875 
Q 49.3125 8.734375 54.109375 11.28125 
L 54.109375 2.78125 
Q 49.265625 0.734375 44.1875 -0.34375 
Q 39.109375 -1.421875 33.890625 -1.421875 
Q 20.796875 -1.421875 13.15625 6.1875 
Q 5.515625 13.8125 5.515625 26.8125 
Q 5.515625 40.234375 12.765625 48.109375 
Q 20.015625 56 32.328125 56 
Q 43.359375 56 49.78125 48.890625 
Q 56.203125 41.796875 56.203125 29.59375 
z
M 47.21875 32.234375 
Q 47.125 39.59375 43.09375 43.984375 
Q 39.0625 48.390625 32.421875 48.390625 
Q 24.90625 48.390625 20.390625 44.140625 
Q 15.875 39.890625 15.1875 32.171875 
z
" id="DejaVuSans-101"/>
       <path d="M 31 75.875 
Q 24.46875 64.65625 21.28125 53.65625 
Q 18.109375 42.671875 18.109375 31.390625 
Q 18.109375 20.125 21.3125 9.0625 
Q 24.515625 -2 31 -13.1875 
L 23.1875 -13.1875 
Q 15.875 -1.703125 12.234375 9.375 
Q 8.59375 20.453125 8.59375 31.390625 
Q 8.59375 42.28125 12.203125 53.3125 
Q 15.828125 64.359375 23.1875 75.875 
z
" id="DejaVuSans-40"/>
       <path d="M 9.8125 72.90625 
L 24.515625 72.90625 
L 43.109375 23.296875 
L 61.8125 72.90625 
L 76.515625 72.90625 
L 76.515625 0 
L 66.890625 0 
L 66.890625 64.015625 
L 48.09375 14.015625 
L 38.1875 14.015625 
L 19.390625 64.015625 
L 19.390625 0 
L 9.8125 0 
z
" id="DejaVuSans-77"/>
       <path d="M 34.28125 27.484375 
Q 23.390625 27.484375 19.1875 25 
Q 14.984375 22.515625 14.984375 16.5 
Q 14.984375 11.71875 18.140625 8.90625 
Q 21.296875 6.109375 26.703125 6.109375 
Q 34.1875 6.109375 38.703125 11.40625 
Q 43.21875 16.703125 43.21875 25.484375 
L 43.21875 27.484375 
z
M 52.203125 31.203125 
L 52.203125 0 
L 43.21875 0 
L 43.21875 8.296875 
Q 40.140625 3.328125 35.546875 0.953125 
Q 30.953125 -1.421875 24.3125 -1.421875 
Q 15.921875 -1.421875 10.953125 3.296875 
Q 6 8.015625 6 15.921875 
Q 6 25.140625 12.171875 29.828125 
Q 18.359375 34.515625 30.609375 34.515625 
L 43.21875 34.515625 
L 43.21875 35.40625 
Q 43.21875 41.609375 39.140625 45 
Q 35.0625 48.390625 27.6875 48.390625 
Q 23 48.390625 18.546875 47.265625 
Q 14.109375 46.140625 10.015625 43.890625 
L 10.015625 52.203125 
Q 14.9375 54.109375 19.578125 55.046875 
Q 24.21875 56 28.609375 56 
Q 40.484375 56 46.34375 49.84375 
Q 52.203125 43.703125 52.203125 31.203125 
z
" id="DejaVuSans-97"/>
       <path d="M 8.015625 75.875 
L 15.828125 75.875 
Q 23.140625 64.359375 26.78125 53.3125 
Q 30.421875 42.28125 30.421875 31.390625 
Q 30.421875 20.453125 26.78125 9.375 
Q 23.140625 -1.703125 15.828125 -13.1875 
L 8.015625 -13.1875 
Q 14.5 -2 17.703125 9.0625 
Q 20.90625 20.125 20.90625 31.390625 
Q 20.90625 42.671875 17.703125 53.65625 
Q 14.5 64.65625 8.015625 75.875 
z
" id="DejaVuSans-41"/>
      </defs>
      <use xlink:href="#DejaVuSans-32"/>
      <use x="31.787109" xlink:href="#DejaVuSans-32"/>
      <use x="63.574219" xlink:href="#DejaVuSans-32"/>
      <use x="95.361328" xlink:href="#DejaVuSans-32"/>
      <use x="127.148438" xlink:href="#DejaVuSans-32"/>
      <use x="158.935547" xlink:href="#DejaVuSans-32"/>
      <use x="190.722656" xlink:href="#DejaVuSans-32"/>
      <use x="222.509766" xlink:href="#DejaVuSans-32"/>
      <use x="254.296875" xlink:href="#DejaVuSans-32"/>
      <use x="286.083984" xlink:href="#DejaVuSans-32"/>
      <use x="317.871094" xlink:href="#DejaVuSans-32"/>
      <use x="349.658203" xlink:href="#DejaVuSans-32"/>
      <use x="381.445312" xlink:href="#DejaVuSans-32"/>
      <use x="413.232422" xlink:href="#DejaVuSans-65"/>
      <use x="481.640625" xlink:href="#DejaVuSans-103"/>
      <use x="545.117188" xlink:href="#DejaVuSans-101"/>
      <use x="606.640625" xlink:href="#DejaVuSans-32"/>
      <use x="638.427734" xlink:href="#DejaVuSans-40"/>
      <use x="677.441406" xlink:href="#DejaVuSans-77"/>
      <use x="763.720703" xlink:href="#DejaVuSans-97"/>
      <use x="825" xlink:href="#DejaVuSans-41"/>
      <use x="864.013672" xlink:href="#DejaVuSans-32"/>
     </g>
    </g>
   </g>
   <g id="matplotlib.axis_2">
    <g id="ytick_1">
     <g id="line2d_18">
      <defs>
       <path d="M 0 0 
L -3.5 0 
" id="m4093a8d85f" style="stroke:#262626;stroke-width:0.8;"/>
      </defs>
      <g>
       <use style="fill:#262626;stroke:#262626;stroke-width:0.8;" x="126" xlink:href="#m4093a8d85f" y="252"/>
      </g>
     </g>
     <g id="text_10">
      <!-- 0.000 -->
      <g style="fill:#262626;" transform="translate(90.371875 255.799219)scale(0.1 -0.1)">
       <defs>
        <path d="M 10.6875 12.40625 
L 21 12.40625 
L 21 0 
L 10.6875 0 
z
" id="DejaVuSans-46"/>
       </defs>
       <use xlink:href="#DejaVuSans-48"/>
       <use x="63.623047" xlink:href="#DejaVuSans-46"/>
       <use x="95.410156" xlink:href="#DejaVuSans-48"/>
       <use x="159.033203" xlink:href="#DejaVuSans-48"/>
       <use x="222.65625" xlink:href="#DejaVuSans-48"/>
      </g>
     </g>
    </g>
    <g id="ytick_2">
     <g id="line2d_19">
      <g>
       <use style="fill:#262626;stroke:#262626;stroke-width:0.8;" x="126" xlink:href="#m4093a8d85f" y="227.84"/>
      </g>
     </g>
     <g id="text_11">
      <!-- 0.001 -->
      <g style="fill:#262626;" transform="translate(90.371875 231.639219)scale(0.1 -0.1)">
       <defs>
        <path d="M 12.40625 8.296875 
L 28.515625 8.296875 
L 28.515625 63.921875 
L 10.984375 60.40625 
L 10.984375 69.390625 
L 28.421875 72.90625 
L 38.28125 72.90625 
L 38.28125 8.296875 
L 54.390625 8.296875 
L 54.390625 0 
L 12.40625 0 
z
" id="DejaVuSans-49"/>
       </defs>
       <use xlink:href="#DejaVuSans-48"/>
       <use x="63.623047" xlink:href="#DejaVuSans-46"/>
       <use x="95.410156" xlink:href="#DejaVuSans-48"/>
       <use x="159.033203" xlink:href="#DejaVuSans-48"/>
       <use x="222.65625" xlink:href="#DejaVuSans-49"/>
      </g>
     </g>
    </g>
    <g id="ytick_3">
     <g id="line2d_20">
      <g>
       <use style="fill:#262626;stroke:#262626;stroke-width:0.8;" x="126" xlink:href="#m4093a8d85f" y="203.68"/>
      </g>
     </g>
     <g id="text_12">
      <!-- 0.002 -->
      <g style="fill:#262626;" transform="translate(90.371875 207.479219)scale(0.1 -0.1)">
       <use xlink:href="#DejaVuSans-48"/>
       <use x="63.623047" xlink:href="#DejaVuSans-46"/>
       <use x="95.410156" xlink:href="#DejaVuSans-48"/>
       <use x="159.033203" xlink:href="#DejaVuSans-48"/>
       <use x="222.65625" xlink:href="#DejaVuSans-50"/>
      </g>
     </g>
    </g>
    <g id="ytick_4">
     <g id="line2d_21">
      <g>
       <use style="fill:#262626;stroke:#262626;stroke-width:0.8;" x="126" xlink:href="#m4093a8d85f" y="179.52"/>
      </g>
     </g>
     <g id="text_13">
      <!-- 0.003 -->
      <g style="fill:#262626;" transform="translate(90.371875 183.319219)scale(0.1 -0.1)">
       <use xlink:href="#DejaVuSans-48"/>
       <use x="63.623047" xlink:href="#DejaVuSans-46"/>
       <use x="95.410156" xlink:href="#DejaVuSans-48"/>
       <use x="159.033203" xlink:href="#DejaVuSans-48"/>
       <use x="222.65625" xlink:href="#DejaVuSans-51"/>
      </g>
     </g>
    </g>
    <g id="ytick_5">
     <g id="line2d_22">
      <g>
       <use style="fill:#262626;stroke:#262626;stroke-width:0.8;" x="126" xlink:href="#m4093a8d85f" y="155.36"/>
      </g>
     </g>
     <g id="text_14">
      <!-- 0.004 -->
      <g style="fill:#262626;" transform="translate(90.371875 159.159219)scale(0.1 -0.1)">
       <use xlink:href="#DejaVuSans-48"/>
       <use x="63.623047" xlink:href="#DejaVuSans-46"/>
       <use x="95.410156" xlink:href="#DejaVuSans-48"/>
       <use x="159.033203" xlink:href="#DejaVuSans-48"/>
       <use x="222.65625" xlink:href="#DejaVuSans-52"/>
      </g>
     </g>
    </g>
    <g id="ytick_6">
     <g id="line2d_23">
      <g>
       <use style="fill:#262626;stroke:#262626;stroke-width:0.8;" x="126" xlink:href="#m4093a8d85f" y="131.2"/>
      </g>
     </g>
     <g id="text_15">
      <!-- 0.005 -->
      <g style="fill:#262626;" transform="translate(90.371875 134.999219)scale(0.1 -0.1)">
       <defs>
        <path d="M 10.796875 72.90625 
L 49.515625 72.90625 
L 49.515625 64.59375 
L 19.828125 64.59375 
L 19.828125 46.734375 
Q 21.96875 47.46875 24.109375 47.828125 
Q 26.265625 48.1875 28.421875 48.1875 
Q 40.625 48.1875 47.75 41.5 
Q 54.890625 34.8125 54.890625 23.390625 
Q 54.890625 11.625 47.5625 5.09375 
Q 40.234375 -1.421875 26.90625 -1.421875 
Q 22.3125 -1.421875 17.546875 -0.640625 
Q 12.796875 0.140625 7.71875 1.703125 
L 7.71875 11.625 
Q 12.109375 9.234375 16.796875 8.0625 
Q 21.484375 6.890625 26.703125 6.890625 
Q 35.15625 6.890625 40.078125 11.328125 
Q 45.015625 15.765625 45.015625 23.390625 
Q 45.015625 31 40.078125 35.4375 
Q 35.15625 39.890625 26.703125 39.890625 
Q 22.75 39.890625 18.8125 39.015625 
Q 14.890625 38.140625 10.796875 36.28125 
z
" id="DejaVuSans-53"/>
       </defs>
       <use xlink:href="#DejaVuSans-48"/>
       <use x="63.623047" xlink:href="#DejaVuSans-46"/>
       <use x="95.410156" xlink:href="#DejaVuSans-48"/>
       <use x="159.033203" xlink:href="#DejaVuSans-48"/>
       <use x="222.65625" xlink:href="#DejaVuSans-53"/>
      </g>
     </g>
    </g>
    <g id="ytick_7">
     <g id="line2d_24">
      <g>
       <use style="fill:#262626;stroke:#262626;stroke-width:0.8;" x="126" xlink:href="#m4093a8d85f" y="107.04"/>
      </g>
     </g>
     <g id="text_16">
      <!-- 0.006 -->
      <g style="fill:#262626;" transform="translate(90.371875 110.839219)scale(0.1 -0.1)">
       <use xlink:href="#DejaVuSans-48"/>
       <use x="63.623047" xlink:href="#DejaVuSans-46"/>
       <use x="95.410156" xlink:href="#DejaVuSans-48"/>
       <use x="159.033203" xlink:href="#DejaVuSans-48"/>
       <use x="222.65625" xlink:href="#DejaVuSans-54"/>
      </g>
     </g>
    </g>
    <g id="ytick_8">
     <g id="line2d_25">
      <g>
       <use style="fill:#262626;stroke:#262626;stroke-width:0.8;" x="126" xlink:href="#m4093a8d85f" y="82.88"/>
      </g>
     </g>
     <g id="text_17">
      <!-- 0.007 -->
      <g style="fill:#262626;" transform="translate(90.371875 86.679219)scale(0.1 -0.1)">
       <defs>
        <path d="M 8.203125 72.90625 
L 55.078125 72.90625 
L 55.078125 68.703125 
L 28.609375 0 
L 18.3125 0 
L 43.21875 64.59375 
L 8.203125 64.59375 
z
" id="DejaVuSans-55"/>
       </defs>
       <use xlink:href="#DejaVuSans-48"/>
       <use x="63.623047" xlink:href="#DejaVuSans-46"/>
       <use x="95.410156" xlink:href="#DejaVuSans-48"/>
       <use x="159.033203" xlink:href="#DejaVuSans-48"/>
       <use x="222.65625" xlink:href="#DejaVuSans-55"/>
      </g>
     </g>
    </g>
    <g id="ytick_9">
     <g id="line2d_26">
      <g>
       <use style="fill:#262626;stroke:#262626;stroke-width:0.8;" x="126" xlink:href="#m4093a8d85f" y="58.72"/>
      </g>
     </g>
     <g id="text_18">
      <!-- 0.008 -->
      <g style="fill:#262626;" transform="translate(90.371875 62.519219)scale(0.1 -0.1)">
       <use xlink:href="#DejaVuSans-48"/>
       <use x="63.623047" xlink:href="#DejaVuSans-46"/>
       <use x="95.410156" xlink:href="#DejaVuSans-48"/>
       <use x="159.033203" xlink:href="#DejaVuSans-48"/>
       <use x="222.65625" xlink:href="#DejaVuSans-56"/>
      </g>
     </g>
    </g>
    <g id="ytick_10">
     <g id="line2d_27">
      <g>
       <use style="fill:#262626;stroke:#262626;stroke-width:0.8;" x="126" xlink:href="#m4093a8d85f" y="34.56"/>
      </g>
     </g>
     <g id="text_19">
      <!-- 0.009 -->
      <g style="fill:#262626;" transform="translate(90.371875 38.359219)scale(0.1 -0.1)">
       <defs>
        <path d="M 10.984375 1.515625 
L 10.984375 10.5 
Q 14.703125 8.734375 18.5 7.8125 
Q 22.3125 6.890625 25.984375 6.890625 
Q 35.75 6.890625 40.890625 13.453125 
Q 46.046875 20.015625 46.78125 33.40625 
Q 43.953125 29.203125 39.59375 26.953125 
Q 35.25 24.703125 29.984375 24.703125 
Q 19.046875 24.703125 12.671875 31.3125 
Q 6.296875 37.9375 6.296875 49.421875 
Q 6.296875 60.640625 12.9375 67.421875 
Q 19.578125 74.21875 30.609375 74.21875 
Q 43.265625 74.21875 49.921875 64.515625 
Q 56.59375 54.828125 56.59375 36.375 
Q 56.59375 19.140625 48.40625 8.859375 
Q 40.234375 -1.421875 26.421875 -1.421875 
Q 22.703125 -1.421875 18.890625 -0.6875 
Q 15.09375 0.046875 10.984375 1.515625 
z
M 30.609375 32.421875 
Q 37.25 32.421875 41.125 36.953125 
Q 45.015625 41.5 45.015625 49.421875 
Q 45.015625 57.28125 41.125 61.84375 
Q 37.25 66.40625 30.609375 66.40625 
Q 23.96875 66.40625 20.09375 61.84375 
Q 16.21875 57.28125 16.21875 49.421875 
Q 16.21875 41.5 20.09375 36.953125 
Q 23.96875 32.421875 30.609375 32.421875 
z
" id="DejaVuSans-57"/>
       </defs>
       <use xlink:href="#DejaVuSans-48"/>
       <use x="63.623047" xlink:href="#DejaVuSans-46"/>
       <use x="95.410156" xlink:href="#DejaVuSans-48"/>
       <use x="159.033203" xlink:href="#DejaVuSans-48"/>
       <use x="222.65625" xlink:href="#DejaVuSans-57"/>
      </g>
     </g>
    </g>
    <g id="text_20">
     <!--      Probability -->
     <g style="fill:#262626;" transform="translate(84.292187 177.654219)rotate(-90)scale(0.1 -0.1)">
      <defs>
       <path d="M 19.671875 64.796875 
L 19.671875 37.40625 
L 32.078125 37.40625 
Q 38.96875 37.40625 42.71875 40.96875 
Q 46.484375 44.53125 46.484375 51.125 
Q 46.484375 57.671875 42.71875 61.234375 
Q 38.96875 64.796875 32.078125 64.796875 
z
M 9.8125 72.90625 
L 32.078125 72.90625 
Q 44.34375 72.90625 50.609375 67.359375 
Q 56.890625 61.8125 56.890625 51.125 
Q 56.890625 40.328125 50.609375 34.8125 
Q 44.34375 29.296875 32.078125 29.296875 
L 19.671875 29.296875 
L 19.671875 0 
L 9.8125 0 
z
" id="DejaVuSans-80"/>
       <path d="M 41.109375 46.296875 
Q 39.59375 47.171875 37.8125 47.578125 
Q 36.03125 48 33.890625 48 
Q 26.265625 48 22.1875 43.046875 
Q 18.109375 38.09375 18.109375 28.8125 
L 18.109375 0 
L 9.078125 0 
L 9.078125 54.6875 
L 18.109375 54.6875 
L 18.109375 46.1875 
Q 20.953125 51.171875 25.484375 53.578125 
Q 30.03125 56 36.53125 56 
Q 37.453125 56 38.578125 55.875 
Q 39.703125 55.765625 41.0625 55.515625 
z
" id="DejaVuSans-114"/>
       <path d="M 30.609375 48.390625 
Q 23.390625 48.390625 19.1875 42.75 
Q 14.984375 37.109375 14.984375 27.296875 
Q 14.984375 17.484375 19.15625 11.84375 
Q 23.34375 6.203125 30.609375 6.203125 
Q 37.796875 6.203125 41.984375 11.859375 
Q 46.1875 17.53125 46.1875 27.296875 
Q 46.1875 37.015625 41.984375 42.703125 
Q 37.796875 48.390625 30.609375 48.390625 
z
M 30.609375 56 
Q 42.328125 56 49.015625 48.375 
Q 55.71875 40.765625 55.71875 27.296875 
Q 55.71875 13.875 49.015625 6.21875 
Q 42.328125 -1.421875 30.609375 -1.421875 
Q 18.84375 -1.421875 12.171875 6.21875 
Q 5.515625 13.875 5.515625 27.296875 
Q 5.515625 40.765625 12.171875 48.375 
Q 18.84375 56 30.609375 56 
z
" id="DejaVuSans-111"/>
       <path d="M 48.6875 27.296875 
Q 48.6875 37.203125 44.609375 42.84375 
Q 40.53125 48.484375 33.40625 48.484375 
Q 26.265625 48.484375 22.1875 42.84375 
Q 18.109375 37.203125 18.109375 27.296875 
Q 18.109375 17.390625 22.1875 11.75 
Q 26.265625 6.109375 33.40625 6.109375 
Q 40.53125 6.109375 44.609375 11.75 
Q 48.6875 17.390625 48.6875 27.296875 
z
M 18.109375 46.390625 
Q 20.953125 51.265625 25.265625 53.625 
Q 29.59375 56 35.59375 56 
Q 45.5625 56 51.78125 48.09375 
Q 58.015625 40.1875 58.015625 27.296875 
Q 58.015625 14.40625 51.78125 6.484375 
Q 45.5625 -1.421875 35.59375 -1.421875 
Q 29.59375 -1.421875 25.265625 0.953125 
Q 20.953125 3.328125 18.109375 8.203125 
L 18.109375 0 
L 9.078125 0 
L 9.078125 75.984375 
L 18.109375 75.984375 
z
" id="DejaVuSans-98"/>
       <path d="M 9.421875 54.6875 
L 18.40625 54.6875 
L 18.40625 0 
L 9.421875 0 
z
M 9.421875 75.984375 
L 18.40625 75.984375 
L 18.40625 64.59375 
L 9.421875 64.59375 
z
" id="DejaVuSans-105"/>
       <path d="M 9.421875 75.984375 
L 18.40625 75.984375 
L 18.40625 0 
L 9.421875 0 
z
" id="DejaVuSans-108"/>
       <path d="M 18.3125 70.21875 
L 18.3125 54.6875 
L 36.8125 54.6875 
L 36.8125 47.703125 
L 18.3125 47.703125 
L 18.3125 18.015625 
Q 18.3125 11.328125 20.140625 9.421875 
Q 21.96875 7.515625 27.59375 7.515625 
L 36.8125 7.515625 
L 36.8125 0 
L 27.59375 0 
Q 17.1875 0 13.234375 3.875 
Q 9.28125 7.765625 9.28125 18.015625 
L 9.28125 47.703125 
L 2.6875 47.703125 
L 2.6875 54.6875 
L 9.28125 54.6875 
L 9.28125 70.21875 
z
" id="DejaVuSans-116"/>
       <path d="M 32.171875 -5.078125 
Q 28.375 -14.84375 24.75 -17.8125 
Q 21.140625 -20.796875 15.09375 -20.796875 
L 7.90625 -20.796875 
L 7.90625 -13.28125 
L 13.1875 -13.28125 
Q 16.890625 -13.28125 18.9375 -11.515625 
Q 21 -9.765625 23.484375 -3.21875 
L 25.09375 0.875 
L 2.984375 54.6875 
L 12.5 54.6875 
L 29.59375 11.921875 
L 46.6875 54.6875 
L 56.203125 54.6875 
z
" id="DejaVuSans-121"/>
      </defs>
      <use xlink:href="#DejaVuSans-32"/>
      <use x="31.787109" xlink:href="#DejaVuSans-32"/>
      <use x="63.574219" xlink:href="#DejaVuSans-32"/>
      <use x="95.361328" xlink:href="#DejaVuSans-32"/>
      <use x="127.148438" xlink:href="#DejaVuSans-32"/>
      <use x="158.935547" xlink:href="#DejaVuSans-80"/>
      <use x="217.488281" xlink:href="#DejaVuSans-114"/>
      <use x="256.351562" xlink:href="#DejaVuSans-111"/>
      <use x="317.533203" xlink:href="#DejaVuSans-98"/>
      <use x="381.009766" xlink:href="#DejaVuSans-97"/>
      <use x="442.289062" xlink:href="#DejaVuSans-98"/>
      <use x="505.765625" xlink:href="#DejaVuSans-105"/>
      <use x="533.548828" xlink:href="#DejaVuSans-108"/>
      <use x="561.332031" xlink:href="#DejaVuSans-105"/>
      <use x="589.115234" xlink:href="#DejaVuSans-116"/>
      <use x="628.324219" xlink:href="#DejaVuSans-121"/>
     </g>
    </g>
   </g>
   <g id="line2d_28">
    <path clip-path="url(#pa75eb332b5)" d="M 482.674195 251.972646 
L 476.003855 251.798422 
L 471.834892 251.446964 
L 468.499722 250.897324 
L 465.998345 250.256564 
L 463.496967 249.359996 
L 460.99559 248.143065 
L 459.328005 247.115278 
L 457.66042 245.882415 
L 455.992835 244.413934 
L 454.32525 242.678099 
L 452.657665 240.644609 
L 450.99008 238.288074 
L 449.322495 235.591974 
L 447.65491 232.552602 
L 445.153532 227.382093 
L 442.652155 221.590934 
L 438.483192 211.152726 
L 434.314229 200.813222 
L 431.812852 195.085024 
L 429.311474 189.821536 
L 425.976304 183.443359 
L 422.641134 177.584762 
L 419.305964 172.15589 
L 416.804587 168.496655 
L 415.137002 166.364455 
L 413.469417 164.565147 
L 411.801832 163.175332 
L 410.134247 162.266213 
L 409.300454 162.01139 
L 408.466662 161.898396 
L 407.632869 161.932428 
L 406.799077 162.117484 
L 405.965284 162.456218 
L 405.131492 162.949798 
L 404.297699 163.597759 
L 402.630114 165.346011 
L 400.962529 167.660064 
L 399.294944 170.467503 
L 396.793567 175.374968 
L 388.455641 192.756689 
L 385.954264 197.205648 
L 382.619094 202.627656 
L 377.616339 210.67751 
L 372.613584 219.292729 
L 369.278414 224.951236 
L 366.777036 228.83582 
L 364.275659 232.255757 
L 362.608074 234.244056 
L 360.940489 235.996116 
L 359.272904 237.52187 
L 357.605319 238.83898 
L 355.103941 240.47464 
L 352.602564 241.785185 
L 349.267394 243.206856 
L 340.095676 246.855768 
L 334.259128 249.270362 
L 330.923958 250.365598 
L 328.422581 250.972659 
L 325.087411 251.504832 
L 321.752241 251.790394 
L 316.749486 251.954952 
L 316.749486 251.954952 
" style="fill:none;stroke:#800080;stroke-dasharray:1.5,2.475;stroke-dashoffset:0;stroke-width:1.5;"/>
   </g>
   <g id="line2d_29">
    <path clip-path="url(#pa75eb332b5)" d="M 467.51607 251.978454 
L 451.086648 251.835982 
L 440.1337 251.518615 
L 431.006243 250.996633 
L 423.704278 250.368683 
L 414.576821 249.337881 
L 399.97289 247.376113 
L 372.59052 243.504068 
L 363.463064 241.905121 
L 356.161098 240.405604 
L 348.859133 238.702186 
L 339.731676 236.315738 
L 330.60422 233.697228 
L 319.651272 230.317295 
L 301.396358 224.578361 
L 295.919884 223.092144 
L 290.44341 221.854459 
L 284.966936 220.919182 
L 279.490462 220.298748 
L 274.013988 219.961715 
L 268.537514 219.845241 
L 261.235549 219.909324 
L 250.282601 220.237686 
L 239.329653 220.777632 
L 230.202196 221.478409 
L 222.900231 222.255606 
L 215.598265 223.264136 
L 210.121791 224.211666 
L 204.645317 225.372952 
L 199.168843 226.802982 
L 193.692369 228.550057 
L 188.215895 230.635377 
L 182.739421 233.034919 
L 175.437456 236.58216 
L 164.484508 241.997711 
L 159.008034 244.426862 
L 155.357051 245.861988 
L 151.706068 247.125706 
L 148.055086 248.20947 
L 144.404103 249.114687 
L 140.75312 249.851103 
L 135.276646 250.675164 
L 129.800172 251.223726 
L 122.498207 251.648854 
L 113.37075 251.885819 
L 104.243294 251.968005 
L 104.243294 251.968005 
" style="fill:none;stroke:#0000ff;stroke-dasharray:1.5,2.475;stroke-dashoffset:0;stroke-width:1.5;"/>
   </g>
   <g id="line2d_30">
    <path clip-path="url(#pa75eb332b5)" d="M 475.62257 251.575126 
L 474.549913 251.221755 
L 473.477256 250.622123 
L 472.404599 249.64143 
L 471.331943 248.095627 
L 470.259286 245.747513 
L 469.186629 242.310398 
L 468.113972 237.462729 
L 467.041315 230.87592 
L 465.968659 222.255302 
L 464.896002 211.390819 
L 463.823345 198.210468 
L 462.21436 174.401626 
L 460.069046 137.384754 
L 457.387404 90.937063 
L 456.314747 75.074803 
L 455.242091 61.908291 
L 454.169434 51.957058 
L 453.633105 48.286136 
L 453.096777 45.507545 
L 452.560449 43.619863 
L 452.02412 42.608087 
L 451.487792 42.444926 
L 450.951463 43.092357 
L 450.415135 44.503332 
L 449.878807 46.623581 
L 449.342478 49.393419 
L 448.269821 56.62639 
L 447.197164 65.679516 
L 445.588179 81.560345 
L 439.152238 148.657579 
L 437.543253 162.594865 
L 435.934268 174.799634 
L 434.325283 185.267894 
L 432.716298 194.095382 
L 431.107312 201.447577 
L 429.498327 207.529618 
L 427.889342 212.557396 
L 426.280357 216.739352 
L 424.671372 220.27457 
L 422.526058 224.318769 
L 418.771759 230.660456 
L 415.553789 235.792761 
L 413.944804 238.015818 
L 412.335818 239.822791 
L 411.263161 240.76113 
L 410.190505 241.49399 
L 408.581519 242.282674 
L 405.899877 243.208542 
L 403.754564 244.022151 
L 398.927608 246.100324 
L 397.318623 246.435085 
L 395.709638 246.440691 
L 394.100653 246.161225 
L 389.810025 245.156245 
L 388.20104 245.148569 
L 387.128383 245.335737 
L 385.519398 245.902099 
L 383.910413 246.747654 
L 377.474472 250.512995 
L 375.865487 251.092797 
L 373.720173 251.582743 
L 371.57486 251.83279 
L 368.893218 251.956253 
L 368.893218 251.956253 
" style="fill:none;stroke:#ff0000;stroke-dasharray:1.5,2.475;stroke-dashoffset:0;stroke-width:1.5;"/>
   </g>
   <g id="line2d_31">
    <path clip-path="url(#pa75eb332b5)" d="M 443.292612 251.979389 
L 434.276324 251.845061 
L 429.124159 251.602664 
L 425.260036 251.26515 
L 421.395912 250.734319 
L 417.531788 249.955685 
L 413.667665 248.883147 
L 409.803541 247.489997 
L 405.939418 245.782081 
L 402.075294 243.806997 
L 396.92313 240.899705 
L 390.482924 237.030851 
L 386.6188 234.520118 
L 384.042718 232.671295 
L 381.466635 230.60684 
L 378.890553 228.265168 
L 376.314471 225.599756 
L 373.738388 222.585644 
L 371.162306 219.220014 
L 368.586224 215.518038 
L 366.010141 211.507366 
L 362.146018 204.997639 
L 356.993853 195.716559 
L 351.841688 186.549419 
L 349.265606 182.431518 
L 346.689524 178.900995 
L 345.401482 177.420674 
L 344.113441 176.161389 
L 342.8254 175.142904 
L 341.537359 174.381347 
L 340.249318 173.888713 
L 338.961277 173.67254 
L 337.673235 173.735757 
L 336.385194 174.076715 
L 335.097153 174.689352 
L 333.809112 175.563501 
L 332.521071 176.685284 
L 331.23303 178.037584 
L 329.944988 179.600546 
L 327.368906 183.268497 
L 324.792824 187.495397 
L 320.9287 194.43664 
L 315.776535 203.8093 
L 313.200453 208.197006 
L 310.624371 212.249716 
L 308.048288 215.920419 
L 305.472206 219.202268 
L 302.896124 222.119267 
L 300.320041 224.714084 
L 297.743959 227.036002 
L 295.167877 229.131533 
L 291.303753 231.931432 
L 287.439629 234.394504 
L 283.575506 236.570998 
L 279.711382 238.493251 
L 275.847259 240.197689 
L 270.695094 242.231661 
L 256.526641 247.453191 
L 252.662518 248.696998 
L 248.798394 249.686248 
L 246.222312 250.165205 
L 243.646229 250.490041 
L 239.782106 250.707582 
L 235.917982 250.672277 
L 223.037571 250.234772 
L 217.885406 250.423141 
L 210.157159 251.04085 
L 202.428912 251.609002 
L 195.988706 251.863777 
L 186.972418 251.980515 
L 186.972418 251.980515 
" style="fill:none;stroke:#800080;stroke-linecap:round;stroke-width:1.5;"/>
   </g>
   <g id="line2d_32">
    <path clip-path="url(#pa75eb332b5)" d="M 416.63818 251.976913 
L 402.825436 251.826055 
L 395.15169 251.556489 
L 389.012693 251.144349 
L 382.873696 250.47342 
L 378.269448 249.756609 
L 373.6652 248.833614 
L 369.060952 247.699739 
L 364.456704 246.369196 
L 358.317707 244.34987 
L 335.296467 236.361457 
L 327.622721 234.119379 
L 318.414225 231.713785 
L 307.67098 229.158767 
L 298.462484 227.175351 
L 272.371746 221.793383 
L 263.16325 219.396681 
L 255.489504 217.428855 
L 250.885256 216.451872 
L 246.281008 215.735299 
L 241.67676 215.327975 
L 237.072512 215.230235 
L 232.468264 215.397701 
L 226.329267 215.911034 
L 218.655521 216.81127 
L 210.981774 217.931986 
L 206.377526 218.786021 
L 201.773278 219.863985 
L 197.169031 221.238769 
L 194.099532 222.347994 
L 191.030033 223.622246 
L 186.425786 225.843182 
L 181.821538 228.405298 
L 177.21729 231.237121 
L 160.335047 241.991348 
L 155.7308 244.453438 
L 152.661301 245.885644 
L 149.591802 247.136662 
L 146.522304 248.204491 
L 143.452805 249.094979 
L 140.383307 249.820358 
L 135.779059 250.636449 
L 131.174811 251.185961 
L 125.035814 251.620125 
L 117.362067 251.870321 
L 111.22307 251.95031 
L 111.22307 251.95031 
" style="fill:none;stroke:#0000ff;stroke-linecap:round;stroke-width:1.5;"/>
   </g>
   <g id="line2d_33">
    <path clip-path="url(#pa75eb332b5)" d="M 475.550985 251.612384 
L 474.168856 251.156974 
L 473.247436 250.629489 
L 472.326017 249.828061 
L 471.404597 248.644237 
L 470.483178 246.944365 
L 469.561758 244.572023 
L 468.640339 241.354767 
L 467.718919 237.115995 
L 466.7975 231.691972 
L 465.87608 224.953071 
L 464.954661 216.827143 
L 463.572531 202.08048 
L 462.190402 184.697302 
L 457.122595 117.613279 
L 456.201175 108.543206 
L 455.279756 101.237171 
L 454.358336 95.789939 
L 453.436917 92.173939 
L 452.976207 91.014289 
L 452.515497 90.25524 
L 452.054787 89.867719 
L 451.594078 89.81959 
L 451.133368 90.076677 
L 450.672658 90.603761 
L 449.751239 92.327347 
L 448.829819 94.720986 
L 447.44769 99.063401 
L 443.301302 113.454158 
L 440.997753 121.922463 
L 439.154914 129.698294 
L 437.772785 136.441164 
L 435.929946 146.778822 
L 433.626397 161.377976 
L 430.862139 179.026063 
L 429.480009 186.728215 
L 428.09788 193.101764 
L 427.176461 196.497685 
L 426.255041 199.201201 
L 425.333622 201.26035 
L 424.412202 202.767861 
L 423.490782 203.850651 
L 422.108653 205.002173 
L 420.265814 206.425556 
L 419.344395 207.363975 
L 418.422975 208.562389 
L 417.501556 210.059647 
L 416.119426 212.870864 
L 414.737297 216.266543 
L 412.433748 222.672363 
L 410.130199 229.004409 
L 408.74807 232.327519 
L 407.365941 235.115493 
L 405.983812 237.333649 
L 404.601682 239.047361 
L 403.219553 240.398958 
L 395.848197 246.950714 
L 393.544648 248.947179 
L 392.162519 249.904257 
L 390.78039 250.642233 
L 389.39826 251.170719 
L 387.555421 251.608374 
L 385.251873 251.868111 
L 383.869743 251.936676 
L 383.869743 251.936676 
" style="fill:none;stroke:#ff0000;stroke-linecap:round;stroke-width:1.5;"/>
   </g>
   <g id="patch_3">
    <path d="M 126 252 
L 126 34.56 
" style="fill:none;stroke:#262626;stroke-linecap:square;stroke-linejoin:miter;stroke-width:0.8;"/>
   </g>
   <g id="patch_4">
    <path d="M 481.090909 252 
L 481.090909 34.56 
" style="fill:none;stroke:#262626;stroke-linecap:square;stroke-linejoin:miter;stroke-width:0.8;"/>
   </g>
   <g id="patch_5">
    <path d="M 126 252 
L 481.090909 252 
" style="fill:none;stroke:#262626;stroke-linecap:square;stroke-linejoin:miter;stroke-width:0.8;"/>
   </g>
   <g id="patch_6">
    <path d="M 126 34.56 
L 481.090909 34.56 
" style="fill:none;stroke:#262626;stroke-linecap:square;stroke-linejoin:miter;stroke-width:0.8;"/>
   </g>
  </g>
  <g id="axes_2"/>
 </g>
 <defs>
  <clipPath id="pa75eb332b5">
   <rect height="217.44" width="355.090909" x="126" y="34.56"/>
  </clipPath>
 </defs>
</svg>
